<mxfile host="app.diagrams.net" modified="2024-04-20T01:15:27.909Z" agent="Mozilla/5.0 (X11; Linux x86_64) AppleWebKit/537.36 (KHTML, like Gecko) Chrome/121.0.0.0 Safari/537.36" version="24.2.3" etag="bpiWWft773HuJ9j7iEDC" type="github">
  <diagram name="Page-1" id="vwyYJIb6r-0Qm3-hYrX_">
    <mxGraphModel>
      <root>
        <mxCell id="0" />
        <mxCell id="1" parent="0" />
      </root>
    </mxGraphModel>
  </diagram>
</mxfile>
